<?xml version="1.0" encoding="UTF-8"?>
<svg width="100%" height="auto" viewBox="0 0 601 160" version="1.1" xmlns="http://www.w3.org/2000/svg" xmlns:xlink="http://www.w3.org/1999/xlink">
    <!-- Generator: Sketch 48.2 (47327) - http://www.bohemiancoding.com/sketch -->
    <title>logo / black</title>
    <desc>Created with Sketch.</desc>
    <defs></defs>
    <g id="Symbols" stroke="none" stroke-width="1" fill="none" fill-rule="evenodd">
        <g id="logo-/-black" fill="#272727">
            <g>
                <path d="M98.5537,93.0303 C101.3417,93.0303 103.0847,92.5663 103.7817,91.6363 C104.4787,90.7073 104.8267,89.3173 104.8267,87.4583 C104.8267,86.2193 104.5187,84.9023 103.9017,83.5083 L102.9757,80.4913 L87.9197,41.2413 L70.6167,80.5673 C69.7567,82.4153 69.1547,84.4923 68.8137,86.7973 C68.8137,89.1063 69.0817,90.7253 69.6257,91.6473 C70.1667,92.5693 71.9867,93.0303 75.0857,93.0303 L98.5537,93.0303 Z M111.1007,0.5553 C113.1127,0.5553 114.7787,1.4083 116.0957,3.1113 C117.4097,4.8173 118.3797,6.7523 119.0007,8.9203 L162.2177,126.2573 L166.4007,134.8533 C167.0177,135.9393 168.9157,137.1413 172.0927,138.4553 C175.2647,139.7733 177.7047,141.1273 179.4107,142.5213 C181.1147,143.9163 181.9667,145.8543 181.9667,148.3303 C181.9667,151.1183 180.8817,153.1333 178.7137,154.3713 C176.5427,155.6133 172.2847,156.2303 165.9347,156.2303 L120.6267,156.2303 C117.5267,156.2303 115.0107,155.7293 113.0747,154.7193 C111.1367,153.7153 110.1707,151.7393 110.1707,148.7953 C110.1707,147.4003 110.4397,146.2033 110.9847,145.1933 C111.5257,144.1873 112.8037,143.2183 114.8187,142.2893 L119.6987,139.5013 C121.0917,138.5713 121.6327,137.4103 121.3247,136.0153 C120.2387,130.9043 118.2237,125.8323 115.2827,120.7973 C112.3377,115.7643 109.3177,113.2453 106.2217,113.2453 L64.6307,113.2453 C60.9127,113.2453 58.0087,114.9873 55.9177,118.4733 C53.8257,121.9593 52.2767,125.0583 51.2707,127.7663 C50.2617,130.4783 49.3717,133.2273 48.5987,136.0153 C48.4427,137.1013 48.9837,138.1863 50.2247,139.2683 L55.3367,142.2893 L59.2867,144.8443 C59.7507,145.4663 60.0607,146.7833 60.2157,148.7953 C60.2157,151.4303 59.2867,153.3263 57.4277,154.4873 C55.5697,155.6493 53.0127,156.2303 49.7597,156.2303 L10.4927,156.2303 C6.6187,156.2303 3.9477,155.7293 2.4767,154.7193 C1.0027,153.7153 0.2697,151.5833 0.2697,148.3303 C0.2697,146.1633 0.8507,144.5363 2.0127,143.4513 C3.1737,142.3693 5.8817,141.0513 10.1407,139.5013 C14.3997,137.9543 16.9947,136.4803 17.9247,135.0863 L23.0357,126.2573 L76.9417,8.9203 C78.3357,5.8233 79.5737,3.7323 80.6587,2.6473 C81.7417,1.5653 83.2907,0.8673 85.3067,0.5553 L111.1007,0.5553 Z" id="Fill-2"></path>
                <path d="M236.2266,130.9043 C236.2266,134.4683 238.4696,137.4503 242.9646,139.8493 C247.4556,142.2533 249.7036,145.5423 249.7036,149.7233 C249.7036,151.2743 249.0826,152.7443 247.8446,154.1383 C246.6026,155.5333 244.8236,156.2303 242.5006,156.2303 L199.0506,156.2303 C194.0906,156.2303 191.6156,154.0623 191.6156,149.7233 C191.6156,146.1633 193.7836,143.1423 198.1216,140.6623 C202.4556,138.1863 204.6276,134.9333 204.6276,130.9043 L204.6276,44.7023 C204.6276,39.5903 202.4556,35.8363 198.1216,33.4333 C193.7836,31.0333 191.6156,28.4373 191.6156,25.6493 C191.6156,22.3963 197.1126,17.4013 208.1136,10.6633 C219.1096,3.9253 226.3126,0.5553 229.7206,0.5553 C231.5806,0.5553 233.0506,0.8673 234.1356,1.4853 C235.2166,2.1053 235.9146,3.5763 236.2266,5.8993 L236.2266,130.9043 Z" id="Fill-4"></path>
                <path d="M288.0283,95.8193 C288.0283,107.7493 291.0483,117.1593 297.0893,124.0483 C303.1303,130.9433 309.7133,134.3893 316.8393,134.3893 C322.8803,134.3893 327.2943,131.6003 330.0833,126.0243 C332.8713,120.4483 334.2643,114.5633 334.2643,108.3663 C334.2643,93.8073 332.3273,83.4283 328.4573,77.2313 C324.5823,71.0373 318.6173,67.9373 310.5653,67.9373 C303.1303,67.9373 297.5143,70.5323 293.7193,75.7203 C289.9233,80.9123 288.0283,87.6103 288.0283,95.8193 M359.5913,0.5553 C361.9153,0.5553 363.5423,1.2923 364.4703,2.7623 C365.4003,4.2363 365.8643,6.4443 365.8643,9.3853 L365.8643,127.1863 C365.8643,132.1453 368.0323,135.7833 372.3713,138.1063 C376.7053,139.9653 378.8773,142.3693 378.8773,145.3093 C378.8773,147.3243 377.6323,148.6423 375.1403,149.2593 L355.5173,154.3713 L343.1413,156.9263 C339.2463,156.9263 336.7933,155.8823 335.7833,153.7903 C334.7693,151.6993 334.2643,148.6423 334.2643,144.6123 L321.7553,152.9773 C314.8053,156.6953 307.3123,158.5533 299.2823,158.5533 C285.8453,158.5533 275.1903,153.8303 267.3123,144.3803 C259.4343,134.9333 255.4993,123.3923 255.4993,109.7593 C255.4993,93.8073 260.5703,80.1753 270.7163,68.8663 C280.8603,57.5613 293.3723,51.9043 308.2423,51.9043 C313.3533,51.9043 317.3403,52.2533 320.2083,52.9503 C323.0733,53.6473 327.7593,55.7783 334.2643,59.3403 L334.2643,39.5903 C334.2643,34.0143 332.1743,30.3363 327.9913,28.5533 C323.8093,26.7753 321.7183,24.1793 321.7183,20.7703 C321.7183,17.5163 327.2163,13.3353 338.2153,8.2233 C349.2123,3.1113 356.3383,0.5553 359.5913,0.5553" id="Fill-6"></path>
                <path d="M415.1006,87.8467 L415.1006,93.8667 C415.1006,95.7167 415.2456,97.5687 415.5386,99.4207 C415.8296,101.2727 416.7856,103.8207 418.3966,107.0587 L454.4116,89.6357 C454.4116,85.1747 452.2506,80.5597 447.9346,75.7897 C443.6186,71.0197 438.7636,68.6347 433.3686,68.6347 L427.1236,69.3277 C424.3506,69.7917 421.9216,71.5317 419.8416,74.5367 C417.7566,77.5467 416.4476,79.8997 415.9096,81.5987 C415.3686,83.2977 415.1006,85.3777 415.1006,87.8467 M440.5356,52.3697 C453.0536,52.3697 463.8716,55.8327 472.9926,62.7607 C482.1116,69.6867 487.5966,77.7677 489.4526,87.0037 L489.4526,89.3127 L485.9386,91.5817 L425.5556,121.1457 C426.1726,124.7107 429.5056,128.5797 435.5466,132.7627 C441.8966,136.6367 448.8676,138.5717 456.4576,138.5717 C465.1316,138.5717 472.7986,135.7837 479.4606,130.2067 C486.1196,124.6307 490.7656,121.8417 493.4026,121.8417 C496.9626,121.8417 498.7466,123.8577 498.7466,127.8827 C498.7466,132.5307 493.4776,138.8837 482.9466,146.9367 C472.4116,154.9927 458.0846,159.0187 439.9616,159.0187 C421.8386,159.0187 407.8966,154.1137 398.1386,144.2967 C388.3796,134.4837 383.5006,121.8497 383.5006,106.3907 C383.5006,90.3157 388.6376,77.2927 398.9156,67.3237 C409.1936,57.3547 423.0656,52.3697 440.5356,52.3697" id="Fill-8"></path>
                <path d="M599.3398,63.7544 L588.8848,93.2634 C588.1088,95.1224 586.4038,96.0514 583.7728,96.0514 C582.8438,96.0514 580.6728,93.9604 577.2678,89.7784 C573.8588,85.5954 570.2168,83.5044 566.3468,83.5044 C561.6998,83.5044 557.6338,85.5594 554.1488,89.6614 C550.6628,93.7674 548.9208,97.9904 548.9208,102.3254 L548.9208,132.5304 C548.9208,136.2484 551.3598,139.2684 556.2388,141.5914 C561.1188,143.9164 563.5588,146.8604 563.5588,150.4214 C563.5588,152.2804 562.5898,153.7144 560.6528,154.7194 C558.7148,155.7294 556.2768,156.2304 553.3348,156.2304 L513.6028,156.2304 C510.8148,156.2304 508.6088,155.6134 506.9818,154.3714 C505.3548,153.1324 504.4618,151.8154 504.3098,150.4214 C504.3098,146.7034 506.4768,143.7224 510.8148,141.4754 C515.1508,139.2324 517.3208,136.2484 517.3208,132.5304 L517.3208,87.4544 C517.3208,84.9784 515.1508,83.3114 510.8148,82.4594 C506.4768,81.6094 504.3098,79.0134 504.3098,74.6754 C504.3098,71.8864 510.3508,67.4724 522.4328,61.4314 C534.5148,55.3904 541.8698,52.3694 544.5048,52.3694 C547.4458,52.3694 548.9208,54.7734 548.9208,59.5724 L548.9208,73.9784 C555.8908,66.8554 562.2398,61.4714 567.9738,57.8304 C573.7018,54.1924 580.2868,52.3694 587.7228,52.3694 C591.4408,52.3694 594.2298,52.8744 596.0878,53.8794 C597.9458,54.8894 599.2608,56.3194 600.0368,58.1784 C600.5018,59.1074 600.2708,60.9664 599.3398,63.7544" id="Fill-10"></path>
                <path d="M585.5361,143.1133 C585.5361,143.5533 585.7071,143.8233 586.0501,143.9213 L587.1521,144.0683 C587.9111,144.0683 588.6221,143.8843 589.2831,143.5163 C589.9451,143.1493 590.2751,142.3783 590.2751,141.2023 C590.2751,140.0503 589.9511,139.2603 589.3021,138.8323 C588.6521,138.4043 587.8501,138.1893 586.8951,138.1893 C586.3561,138.1893 586.0011,138.2263 585.8301,138.3003 C585.6581,138.3733 585.5591,138.5453 585.5361,138.8133 L585.5361,143.1133 Z M593.5091,147.5953 L594.0601,147.8893 C594.3781,148.0123 594.5381,148.2193 594.5381,148.5133 C594.5381,148.7343 594.4951,148.9063 594.4091,149.0283 C594.3231,149.1513 593.9501,149.2123 593.2881,149.2123 L589.9081,149.2123 C589.3691,149.2123 589.0201,149.1703 588.8611,149.0843 C588.7011,148.9983 588.6221,148.8073 588.6221,148.5133 C588.6221,148.3183 588.7751,148.1163 589.0811,147.9083 C589.3881,147.7003 589.5641,147.5583 589.6141,147.4853 L588.9161,146.7143 L587.8501,145.6483 L587.4461,145.6483 L587.1161,145.6483 C586.4301,145.6483 585.9031,145.5743 585.5361,145.4273 L585.5361,147.0583 C585.5361,147.3313 585.7201,147.5793 586.0871,147.8013 L586.7481,148.1353 C586.8221,148.2843 586.8581,148.4083 586.8581,148.5073 C586.8581,148.7793 586.7661,148.9653 586.5831,149.0643 C586.3991,149.1633 586.0621,149.2123 585.5721,149.2123 L582.1921,149.2123 C581.6531,149.2123 581.3041,149.1703 581.1451,149.0843 C580.9851,148.9973 580.9061,148.8063 580.9061,148.5113 C580.9061,148.3403 580.9791,148.1923 581.1271,148.0693 L581.8241,147.7383 C582.0451,147.6153 582.1801,147.3943 582.2281,147.0753 L582.2281,138.7103 C582.2281,138.3423 582.1121,138.1203 581.8791,138.0473 L581.2181,137.7893 C581.0361,137.6913 580.9321,137.5183 580.9061,137.2733 C580.9061,137.0513 581.0281,136.8743 581.2711,136.7383 C581.5151,136.6033 581.9321,136.5363 582.5221,136.5363 L585.0951,136.5363 C587.9851,136.5363 590.2261,136.9403 591.8181,137.7483 C593.4111,138.5563 594.2071,139.8423 594.2071,141.6063 C594.2071,142.4883 593.9431,143.1993 593.4171,143.7373 C592.8901,144.2763 592.1621,144.7053 591.2311,145.0233 L593.5091,147.5953 Z M596.9631,143.3333 C596.9631,140.3203 596.0931,137.7983 594.3541,135.7643 C592.6141,133.7313 590.3731,132.7153 587.6301,132.7153 C584.8871,132.7153 582.6451,133.7313 580.9061,135.7643 C579.1671,137.7983 578.2981,140.3203 578.2981,143.3333 C578.2981,146.3463 579.1671,148.8633 580.9061,150.8843 C582.6451,152.9043 584.8871,153.9153 587.6301,153.9153 C590.3481,153.9153 592.5841,152.9113 594.3361,150.9023 C596.0871,148.8943 596.9631,146.3713 596.9631,143.3333 Z M574.9901,143.3333 C574.9901,139.6593 576.1841,136.5853 578.5731,134.1103 C580.9611,131.6363 583.9791,130.3993 587.6301,130.3993 C591.2791,130.3993 594.2991,131.6313 596.6871,134.0923 C599.0751,136.5543 600.2691,139.6343 600.2691,143.3333 C600.2691,147.0083 599.0751,150.0753 596.6871,152.5373 C594.2991,154.9993 591.2791,156.2303 587.6301,156.2303 C583.9561,156.2303 580.9311,155.0063 578.5551,152.5553 C576.1791,150.1063 574.9901,147.0323 574.9901,143.3333 Z" id="Fill-12"></path>
            </g>
        </g>
    </g>
</svg>