<?xml version="1.0" encoding="UTF-8" standalone="no"?>
<svg width="46px" height="46px" viewBox="0 0 46 46" version="1.1" xmlns="http://www.w3.org/2000/svg" xmlns:xlink="http://www.w3.org/1999/xlink">
    <!-- Generator: Sketch 50.2 (55047) - http://www.bohemiancoding.com/sketch -->
    <title>black</title>
    <desc>Created with Sketch.</desc>
    <defs></defs>
    <g id="Page-1" stroke="none" stroke-width="1" fill="none" fill-rule="evenodd">
        <g id="black">
            <path d="M23,45.5 C10.574,45.5 0.5,35.426 0.5,23 C0.5,10.574 10.574,0.5 23,0.5 C35.426,0.5 45.5,10.574 45.5,23 C45.5,35.426 35.426,45.5 23,45.5 Z M21.950254,24.2136074 L23.9442087,26.1796166 C24.3247927,26.5548667 24.9375173,26.5505427 25.3127674,26.1699587 C25.6880175,25.7893747 25.6836935,25.17665 25.3031095,24.8013999 L23.9101299,23.4279431 L32.7382209,16.2172734 C33.1521597,15.8791736 33.2136393,15.2695258 32.8755395,14.855587 C32.5374397,14.4416482 31.9277919,14.3801685 31.5138531,14.7182684 L22.523902,22.0611433 L15.1378861,14.7786433 C14.7573021,14.4033932 14.1445775,14.4077172 13.7693274,14.7883012 C13.3940773,15.1688852 13.3984013,15.7816098 13.7789853,16.1568599 L21.6130847,23.8811636 C21.6361364,23.9190241 21.6620652,23.955751 21.6909005,23.9910543 C21.7657367,24.082677 21.8538769,24.1570317 21.950254,24.2136074 Z M13.9677413,32 L32.1260565,32 C32.6605253,32 33.0937978,31.5667275 33.0937978,31.0322587 C33.0937978,30.49779 32.6605253,30.0645175 32.1260565,30.0645175 L13.9677413,30.0645175 C13.4332725,30.0645175 13,30.49779 13,31.0322587 C13,31.5667275 13.4332725,32 13.9677413,32 Z" id="Combined-Shape" fill="#000000" fill-rule="nonzero"></path>
            <g id="Group" transform="translate(13.000000, 14.500000)"></g>
        </g>
    </g>
</svg>